# xmcd
#
# Track frame offsets:
#	150
#	17312
#	31875
#	43525
#	58737
#	73887
#	90895
#	104320
#	122237
#	137980
#	155845
#	168545
#
# Disc length: 2507
#
# Revision: 3
# Processed by: cddbd v1.5.1PL0 Copyright (c) Steve Scherf et al.
# Submitted via: CDex 1.40Release
# Normalized: r2:TRMNUM
#
DISCID=9f09c90c
DTITLE=Bob Amos - Wherever I Go
DYEAR=1999
DGENRE=Folk
TTITLE0=I'm Back
TTITLE1=Wherever I Go
TTITLE2=Say What You Mean
TTITLE3=The Fields of Home
TTITLE4=Two Parts Sweat
TTITLE5=November
TTITLE6=Sonoran Dream
TTITLE7=Baby's Got the Blues
TTITLE8=Still Set on You
TTITLE9=Mr. Beford's Barn
TTITLE10=I Know Where You Live
TTITLE11=Be Thou My Vision
EXTD=YEAR: 1999 ID3G: 80
EXTT0=
EXTT1=
EXTT2=
EXTT3=
EXTT4=
EXTT5=
EXTT6=
EXTT7=
EXTT8=
EXTT9=
EXTT10=
EXTT11=
PLAYORDER=
